# xmcd
#
# Track frame offsets:
#	150
#	21850
#	43782
#	61227
#	80215
#	98017
#	117360
#	138520
#	159225
#	177857
#
# Disc length: 2607 seconds
#
# Revision: 1
# Processed by: cddbd v1.4PL0 Copyright (c) Steve Scherf et al.
# Submitted via: EasyCDDAExtractor 5.0.6
#
DISCID=7f0a2d0a
DTITLE=關淑怡 - 冷火
DYEAR=2001
DGENRE=Blues
TTITLE0=泠火
TTITLE1=提醒我的傷心
TTITLE2=記號
TTITLE3=是誰
TTITLE4=我不會唱歌
TTITLE5=夜涼如水
TTITLE6=這些年
TTITLE7=突然不愛你
TTITLE8=復活
TTITLE9=微笑的想你
EXTD=
EXTT0=
EXTT1=
EXTT2=
EXTT3=
EXTT4=
EXTT5=
EXTT6=
EXTT7=
EXTT8=
EXTT9=
PLAYORDER=
